M48
;Layer_Color=9474304
;FILE_FORMAT=2:5
INCH,TZ
;TYPE=PLATED
T1F00S00C0.02800
T2F00S00C0.03000
T3F00S00C0.03346
T4F00S00C0.03543
T5F00S00C0.04000
T6F00S00C0.04291
T7F00S00C0.12835
%
T01
X31000Y110500
Y120500
X42500Y159500
Y169500
X98500Y123500
X108500
X118500
X123000Y143500
X133000
X160500Y140000
X170500
Y110000
X160500
X214000Y120500
Y130500
X234500Y129500
Y119500
Y139500
X227500Y175000
X282000Y111000
X292000
X311500
X321500
X349000Y161000
Y171000
X227500Y185000
T02
X15500Y110500
X16500Y135000
X346000Y124000
Y110500
Y97000
Y80000
Y66500
X89000Y192500
X69500
X52000
T03
X48500Y110500
Y140500
X61000
X74000
Y110500
X61000
X145000Y110000
Y140000
Y151500
X158000Y151000
X187000Y140000
X200000
Y110000
X187000
X254500Y110500
X266000Y111000
Y141000
X254500Y140500
X256000Y155000
X268000
X280500
X244000
Y185000
X256000
X268000
X280500
X158000Y181000
X145000Y181500
T04
X61000Y160000
Y170000
X79000Y150500
X89000
X99000
X109000
X173000
X183000
X193000
X203000
X301000
X311000
X321000
X331000
X322000Y95000
X312000
X302000
X292000
X282000
X272000
X262000
X252000
Y65000
X262000
X272000
X282000
X292000
X302000
X312000
X322000
X321000Y180500
X331000
X311000
X301000
X203000
X193000
X183000
X173000
X109000
X99000
X89000
X79000
T05
X31500Y22000
X41500
X51500
Y87000
X41500
X31500
X61500
X71500
X81500
X91500
X101500
X111500
X121500
X131500
X141500
X151500
X161500
X171500
X181500
X191500
X201500
X211500
Y22000
X201500
X191500
X181500
X171500
X161500
X151500
X141500
X131500
X121500
X111500
X101500
X91500
X81500
X71500
X61500
X221500
Y87000
T06
X283142Y37811
X294047
X304953
X315858
X321311Y48992
X310405
X299500
X288595
X277689
T07
X250307Y43402
X348693
M30
