G04*
G04 #@! TF.GenerationSoftware,Altium Limited,Altium Designer,18.0.7 (293)*
G04*
G04 Layer_Physical_Order=1*
G04 Layer_Color=255*
%FSLAX25Y25*%
%MOIN*%
G70*
G01*
G75*
%ADD16C,0.01000*%
%ADD30C,0.03000*%
%ADD31C,0.01500*%
%ADD32C,0.06000*%
%ADD33C,0.05512*%
%ADD34C,0.05906*%
%ADD35R,0.05906X0.05906*%
%ADD36C,0.05800*%
%ADD37R,0.05800X0.05800*%
%ADD38C,0.05906*%
%ADD39R,0.05906X0.05906*%
%ADD40C,0.06200*%
%ADD41C,0.18740*%
%ADD42R,0.06653X0.06653*%
%ADD43C,0.06653*%
D16*
X321500Y130000D02*
Y133999D01*
X323499Y135998D01*
X325499Y133999D01*
Y130000D01*
Y132999D01*
X321500D01*
X327498Y130000D02*
Y133999D01*
X330497D01*
X331497Y132999D01*
Y130000D01*
X334496Y133999D02*
X336495D01*
X337495Y132999D01*
Y130000D01*
X334496D01*
X333496Y131000D01*
X334496Y131999D01*
X337495D01*
X339494Y130000D02*
X341494D01*
X340494D01*
Y135998D01*
X339494D01*
X345492Y130000D02*
X347492D01*
X348491Y131000D01*
Y132999D01*
X347492Y133999D01*
X345492D01*
X344493Y132999D01*
Y131000D01*
X345492Y130000D01*
X352490Y128001D02*
X353490D01*
X354489Y129000D01*
Y133999D01*
X351490D01*
X350491Y132999D01*
Y131000D01*
X351490Y130000D01*
X354489D01*
X359488Y135998D02*
X357488D01*
X356489Y134998D01*
Y131000D01*
X357488Y130000D01*
X359488D01*
X360487Y131000D01*
Y134998D01*
X359488Y135998D01*
X362487Y133999D02*
Y131000D01*
X363486Y130000D01*
X366485D01*
Y133999D01*
X369484Y134998D02*
Y133999D01*
X368485D01*
X370484D01*
X369484D01*
Y131000D01*
X370484Y130000D01*
X351000Y69498D02*
Y63500D01*
X353999D01*
X354999Y64500D01*
Y68498D01*
X353999Y69498D01*
X351000D01*
X360997Y68498D02*
X359997Y69498D01*
X357998D01*
X356998Y68498D01*
Y64500D01*
X357998Y63500D01*
X359997D01*
X360997Y64500D01*
Y66499D01*
X358997D01*
X362996Y63500D02*
Y69498D01*
X366995Y63500D01*
Y69498D01*
X368994D02*
Y63500D01*
X371993D01*
X372993Y64500D01*
Y68498D01*
X371993Y69498D01*
X368994D01*
X352000Y79999D02*
X355999D01*
X353999Y81998D02*
Y78000D01*
X361997Y82998D02*
X357998D01*
Y79999D01*
X359997Y80999D01*
X360997D01*
X361997Y79999D01*
Y78000D01*
X360997Y77000D01*
X358998D01*
X357998Y78000D01*
X352000Y94500D02*
Y100498D01*
X354999D01*
X355999Y99498D01*
Y97499D01*
X354999Y96499D01*
X352000D01*
X353999D02*
X355999Y94500D01*
X357998Y98499D02*
X361997Y94500D01*
X359997Y96499D01*
X361997Y98499D01*
X357998Y94500D01*
X352000Y113498D02*
X355999D01*
X353999D01*
Y107500D01*
X357998Y111499D02*
X361997Y107500D01*
X359997Y109499D01*
X361997Y111499D01*
X357998Y107500D01*
X3000Y105498D02*
Y99500D01*
X5999D01*
X6999Y100500D01*
Y104498D01*
X5999Y105498D01*
X3000D01*
X12997Y104498D02*
X11997Y105498D01*
X9998D01*
X8998Y104498D01*
Y100500D01*
X9998Y99500D01*
X11997D01*
X12997Y100500D01*
Y102499D01*
X10997D01*
X14996Y99500D02*
Y105498D01*
X18995Y99500D01*
Y105498D01*
X20994D02*
Y99500D01*
X23993D01*
X24993Y100500D01*
Y104498D01*
X23993Y105498D01*
X20994D01*
X1500Y134999D02*
X5499D01*
X3499Y136998D02*
Y133000D01*
X11497Y137998D02*
X7498D01*
Y134999D01*
X9497Y135999D01*
X10497D01*
X11497Y134999D01*
Y133000D01*
X10497Y132000D01*
X8498D01*
X7498Y133000D01*
X35999Y199498D02*
X34999Y200498D01*
X33000D01*
X32000Y199498D01*
Y195500D01*
X33000Y194500D01*
X34999D01*
X35999Y195500D01*
Y197499D01*
X33999D01*
X37998Y194500D02*
Y200498D01*
X41997Y194500D01*
Y200498D01*
X43996D02*
Y194500D01*
X46995D01*
X47995Y195500D01*
Y199498D01*
X46995Y200498D01*
X43996D01*
X59500Y200499D02*
X63499D01*
X61499Y202498D02*
Y198500D01*
X65498Y197500D02*
X67497D01*
X66498D01*
Y203498D01*
X65498Y202498D01*
X74495Y197500D02*
X70496D01*
X74495Y201499D01*
Y202498D01*
X73496Y203498D01*
X71496D01*
X70496Y202498D01*
X92500Y197999D02*
X96499D01*
X98498Y195000D02*
X100497D01*
X99498D01*
Y200998D01*
X98498Y199998D01*
X107495Y195000D02*
X103496D01*
X107495Y198999D01*
Y199998D01*
X106495Y200998D01*
X104496D01*
X103496Y199998D01*
D30*
X334500Y66500D02*
X346000D01*
X325500Y57500D02*
X334500Y66500D01*
X316000Y57500D02*
X325500D01*
X312000Y61500D02*
X316000Y57500D01*
X312000Y61500D02*
Y65000D01*
X337000Y80000D02*
X346000D01*
X322000Y65000D02*
X337000Y80000D01*
X69500Y178500D02*
Y192500D01*
Y178500D02*
X77500Y170500D01*
X89000D01*
X109000Y150500D01*
X52000Y179000D02*
X61000Y170000D01*
X52000Y179000D02*
Y193000D01*
X89000Y180500D02*
Y193000D01*
X338500Y150500D02*
X349000Y161000D01*
X331000Y150500D02*
X338500D01*
X109000D02*
X116756Y158256D01*
X239750Y101250D02*
X249000Y110500D01*
X230500Y92000D02*
X239750Y101250D01*
X70250D02*
X239750D01*
X61000Y110500D02*
X70250Y101250D01*
X61000Y170000D02*
X66000D01*
X70500Y144000D02*
X74000Y140500D01*
X70500Y144000D02*
Y165500D01*
X66000Y170000D02*
X70500Y165500D01*
X15500Y110500D02*
X31000D01*
X16500Y135000D02*
X31000Y120500D01*
X195244Y158256D02*
X203000Y150500D01*
X116756Y158256D02*
X195244D01*
X51000Y120500D02*
X61000Y110500D01*
X31000Y120500D02*
X51000D01*
X201500Y22000D02*
X230500Y51000D01*
Y92000D01*
X249000Y110500D02*
X254500D01*
X219900Y154100D02*
X234500Y139500D01*
X226752Y185000D02*
X227500D01*
X219900Y178148D02*
X226752Y185000D01*
X219900Y154100D02*
Y178148D01*
X234256Y191756D02*
X261244D01*
X268000Y185000D01*
X227500D02*
X234256Y191756D01*
X274756D02*
X328244D01*
X349000Y171000D01*
X268000Y185000D02*
X274756Y191756D01*
X252000Y75000D02*
X262000Y65000D01*
X252000Y75000D02*
Y95000D01*
X277689Y48992D02*
Y49152D01*
X262000Y64841D02*
X277689Y49152D01*
X262000Y64841D02*
Y65000D01*
X176047Y173547D02*
X183000Y180500D01*
X95953Y173547D02*
X176047D01*
X89000Y180500D02*
X95953Y173547D01*
D31*
X323000Y74000D02*
X346000Y97000D01*
X291000Y74000D02*
X323000D01*
X318000Y82500D02*
X346000Y110500D01*
X289500Y82500D02*
X318000D01*
X48500Y140500D02*
Y163500D01*
X42500Y169500D02*
X48500Y163500D01*
X256203Y101203D02*
X266000Y111000D01*
X279000Y124000D02*
X346000D01*
X272000Y65000D02*
X289500Y82500D01*
X282000Y65000D02*
X291000Y74000D01*
X266000Y111000D02*
X278500Y123500D01*
X306994Y136494D02*
X321000Y150500D01*
X264134Y136494D02*
X306994D01*
X261000Y139628D02*
X264134Y136494D01*
X261000Y139628D02*
Y180000D01*
X256000Y185000D02*
X261000Y180000D01*
X244000Y185000D02*
X256000D01*
X266000Y141000D02*
X274500Y149500D01*
Y179000D01*
X280500Y185000D01*
X313500Y173000D02*
X321000Y180500D01*
X292500Y173000D02*
X313500D01*
X280500Y185000D02*
X292500Y173000D01*
X280500Y155000D02*
X306500D01*
X311000Y150500D01*
X145000Y110000D02*
X163000Y128000D01*
X187000D01*
X193000Y134000D01*
Y150500D01*
X118500Y123500D02*
Y139000D01*
X123000Y143500D01*
X74000Y110500D02*
X99000Y135500D01*
Y150500D01*
X255250Y154250D02*
X256000Y155000D01*
X245500Y140500D02*
X254500D01*
X234500Y129500D02*
X245500Y140500D01*
X255250Y141250D02*
Y154250D01*
X254500Y140500D02*
X255250Y141250D01*
X158250Y150750D02*
X182750D01*
X157750Y151250D02*
X158250Y150750D01*
X182750D02*
X183000Y150500D01*
X145250Y151250D02*
X157750D01*
X145000Y151500D02*
X145250Y151250D01*
X181500Y22000D02*
X187650Y15850D01*
X224047D01*
X236739Y28542D02*
Y88511D01*
X249431Y101203D01*
X256203D01*
X224047Y15850D02*
X236739Y28542D01*
X292000Y56492D02*
Y65000D01*
Y56492D02*
X299500Y48992D01*
X302000Y57398D02*
Y65000D01*
Y57398D02*
X310405Y48992D01*
X321500Y95500D02*
X322000Y95000D01*
X321500Y95500D02*
Y111000D01*
X302000Y95000D02*
Y101500D01*
X311500Y111000D01*
X292000Y95000D02*
Y111000D01*
X282000Y95000D02*
Y111000D01*
X170500Y110000D02*
X200000D01*
Y134500D02*
Y140000D01*
Y134500D02*
X214000Y120500D01*
X163703Y186703D02*
X186797D01*
X214000Y159500D01*
X158000Y181000D02*
X163703Y186703D01*
X214000Y130500D02*
Y159500D01*
X61000Y140500D02*
Y160000D01*
D32*
X346000Y66500D02*
D03*
Y80000D02*
D03*
X52000Y192500D02*
D03*
X69500D02*
D03*
X89000D02*
D03*
X16500Y135000D02*
D03*
X15500Y110500D02*
D03*
X346000Y124000D02*
D03*
Y97000D02*
D03*
Y110500D02*
D03*
D33*
X74000D02*
D03*
Y140500D02*
D03*
X266000Y111000D02*
D03*
Y141000D02*
D03*
X280500Y185000D02*
D03*
Y155000D02*
D03*
X268000D02*
D03*
Y185000D02*
D03*
X256000Y155000D02*
D03*
Y185000D02*
D03*
X244000Y155000D02*
D03*
Y185000D02*
D03*
X254500Y110500D02*
D03*
Y140500D02*
D03*
X187000Y140000D02*
D03*
Y110000D02*
D03*
X200000D02*
D03*
Y140000D02*
D03*
X145000Y110000D02*
D03*
Y140000D02*
D03*
X158000Y151000D02*
D03*
Y181000D02*
D03*
X145000Y151500D02*
D03*
Y181500D02*
D03*
X48500Y110500D02*
D03*
Y140500D02*
D03*
X61000Y110500D02*
D03*
Y140500D02*
D03*
D34*
X252000Y65000D02*
D03*
X262000D02*
D03*
X272000D02*
D03*
X282000D02*
D03*
X292000D02*
D03*
X302000D02*
D03*
X312000D02*
D03*
X322000D02*
D03*
X252000Y95000D02*
D03*
X262000D02*
D03*
X272000D02*
D03*
X282000D02*
D03*
X292000D02*
D03*
X302000D02*
D03*
X312000D02*
D03*
X61000Y170000D02*
D03*
D35*
X322000Y95000D02*
D03*
X61000Y160000D02*
D03*
D36*
X221500Y87000D02*
D03*
X211500D02*
D03*
X201500D02*
D03*
X191500D02*
D03*
X181500D02*
D03*
X171500D02*
D03*
X161500D02*
D03*
X151500D02*
D03*
X141500D02*
D03*
X131500D02*
D03*
X121500D02*
D03*
X111500D02*
D03*
X101500D02*
D03*
X91500D02*
D03*
X81500D02*
D03*
X71500D02*
D03*
X61500D02*
D03*
X51500D02*
D03*
X41500D02*
D03*
X31500D02*
D03*
X221500Y22000D02*
D03*
X211500D02*
D03*
X201500D02*
D03*
X191500D02*
D03*
X181500D02*
D03*
X171500D02*
D03*
X161500D02*
D03*
X151500D02*
D03*
X141500D02*
D03*
X131500D02*
D03*
X121500D02*
D03*
X111500D02*
D03*
X101500D02*
D03*
X91500D02*
D03*
X81500D02*
D03*
X71500D02*
D03*
X61500D02*
D03*
X51500D02*
D03*
X41500D02*
D03*
D37*
X31500D02*
D03*
D38*
X331000Y180500D02*
D03*
X321000D02*
D03*
X311000D02*
D03*
X301000D02*
D03*
X331000Y150500D02*
D03*
X321000D02*
D03*
X311000D02*
D03*
X203000Y180500D02*
D03*
X193000D02*
D03*
X183000D02*
D03*
X173000D02*
D03*
X203000Y150500D02*
D03*
X193000D02*
D03*
X183000D02*
D03*
X109000Y180500D02*
D03*
X99000D02*
D03*
X89000D02*
D03*
X79000D02*
D03*
X109000Y150500D02*
D03*
X99000D02*
D03*
X89000D02*
D03*
D39*
X301000D02*
D03*
X173000D02*
D03*
X79000D02*
D03*
D40*
X234500Y119500D02*
D03*
Y129500D02*
D03*
Y139500D02*
D03*
X98500Y123500D02*
D03*
X108500D02*
D03*
X118500D02*
D03*
X227500Y175000D02*
D03*
Y185000D02*
D03*
X349000Y161000D02*
D03*
Y171000D02*
D03*
X31000Y120500D02*
D03*
Y110500D02*
D03*
X321500Y111000D02*
D03*
X311500D02*
D03*
X292000D02*
D03*
X282000D02*
D03*
X170500Y140000D02*
D03*
X160500D02*
D03*
X170500Y110000D02*
D03*
X160500D02*
D03*
X214000Y120500D02*
D03*
Y130500D02*
D03*
X133000Y143500D02*
D03*
X123000D02*
D03*
X42500Y169500D02*
D03*
Y159500D02*
D03*
D41*
X250307Y43402D02*
D03*
X348693D02*
D03*
D42*
X321311Y48992D02*
D03*
D43*
X315858Y37811D02*
D03*
X310405Y48992D02*
D03*
X304953Y37811D02*
D03*
X299500Y48992D02*
D03*
X294047Y37811D02*
D03*
X288595Y48992D02*
D03*
X283142Y37811D02*
D03*
X277689Y48992D02*
D03*
M02*
